<svg width="46" height="46" viewBox="0 0 46 46" fill="none" xmlns="http://www.w3.org/2000/svg">
<path d="M5.75049 9.58325V8.177C4.97384 8.177 4.34424 8.8066 4.34424 9.58325H5.75049ZM40.2505 9.58325H41.6567C41.6567 8.8066 41.0271 8.177 40.2505 8.177V9.58325ZM40.2505 36.4166V37.8228C41.0271 37.8228 41.6567 37.1932 41.6567 36.4166H40.2505ZM5.75049 36.4166H4.34424C4.34424 37.1932 4.97384 37.8228 5.75049 37.8228V36.4166ZM6.43342 12.1873C5.75451 11.8101 4.89838 12.0547 4.5212 12.7337C4.14403 13.4126 4.38864 14.2687 5.06755 14.6459L6.43342 12.1873ZM23.0005 22.9999L22.3176 24.2292C22.7423 24.4652 23.2587 24.4652 23.6834 24.2292L23.0005 22.9999ZM40.9334 14.6459C41.6123 14.2687 41.8569 13.4126 41.4798 12.7337C41.1026 12.0547 40.2465 11.8101 39.5676 12.1873L40.9334 14.6459ZM5.75049 10.9895H40.2505V8.177H5.75049V10.9895ZM38.8442 9.58325V36.4166H41.6567V9.58325H38.8442ZM40.2505 35.0103H5.75049V37.8228H40.2505V35.0103ZM7.15674 36.4166V9.58325H4.34424V36.4166H7.15674ZM5.06755 14.6459L22.3176 24.2292L23.6834 21.7706L6.43342 12.1873L5.06755 14.6459ZM23.6834 24.2292L40.9334 14.6459L39.5676 12.1873L22.3176 21.7706L23.6834 24.2292Z" fill="white"/>
</svg>
